<svg width="757" height="608" viewBox="0 0 757 608" fill="none" xmlns="http://www.w3.org/2000/svg">
<path d="M8 1317C421.109 1317 756 1022.41 756 659.001C756 295.597 421.109 1 8 1C-405.109 1 -740 295.597 -740 659.001C-740 1022.41 -405.109 1317 8 1317Z" stroke="white" stroke-miterlimit="10"/>
<path d="M8.00018 1291.57C405.145 1291.57 727.094 1008.36 727.094 659.001C727.094 309.641 405.145 26.4281 8.00018 26.4281C-389.144 26.4281 -711.094 309.641 -711.094 659.001C-711.094 1008.36 -389.144 1291.57 8.00018 1291.57Z" stroke="white" stroke-miterlimit="10"/>
<path d="M8.00018 1266.14C389.176 1266.14 698.18 994.314 698.18 659.001C698.18 323.688 389.176 51.8635 8.00018 51.8635C-373.176 51.8635 -682.179 323.688 -682.179 659.001C-682.179 994.314 -373.176 1266.14 8.00018 1266.14Z" stroke="white" stroke-miterlimit="10"/>
<path d="M7.99994 1240.71C373.211 1240.71 669.274 980.271 669.274 659.001C669.274 337.732 373.211 77.2916 7.99994 77.2916C-357.211 77.2916 -653.274 337.732 -653.274 659.001C-653.274 980.271 -357.211 1240.71 7.99994 1240.71Z" stroke="white" stroke-miterlimit="10"/>
<path d="M8.00012 1215.28C357.247 1215.28 640.368 966.227 640.368 659.001C640.368 351.775 357.247 102.72 8.00012 102.72C-341.247 102.72 -624.367 351.775 -624.367 659.001C-624.367 966.227 -341.247 1215.28 8.00012 1215.28Z" stroke="white" stroke-miterlimit="10"/>
<path d="M7.99982 1189.85C341.282 1189.85 611.461 952.183 611.461 659.001C611.461 365.819 341.282 128.148 7.99982 128.148C-325.283 128.148 -595.462 365.819 -595.462 659.001C-595.462 952.183 -325.283 1189.85 7.99982 1189.85Z" stroke="white" stroke-miterlimit="10"/>
<path d="M7.99994 1164.42C325.314 1164.42 582.547 938.136 582.547 659.001C582.547 379.866 325.314 153.583 7.99994 153.583C-309.314 153.583 -566.547 379.866 -566.547 659.001C-566.547 938.136 -309.314 1164.42 7.99994 1164.42Z" stroke="white" stroke-miterlimit="10"/>
<path d="M8 1138.99C309.349 1138.99 553.641 924.092 553.641 659.001C553.641 393.91 309.349 179.011 8 179.011C-293.349 179.011 -537.641 393.91 -537.641 659.001C-537.641 924.092 -293.349 1138.99 8 1138.99Z" stroke="white" stroke-miterlimit="10"/>
<path d="M8 1113.56C293.385 1113.56 524.735 910.049 524.735 659.001C524.735 407.954 293.385 204.439 8 204.439C-277.385 204.439 -508.735 407.954 -508.735 659.001C-508.735 910.049 -277.385 1113.56 8 1113.56Z" stroke="white" stroke-miterlimit="10"/>
<path d="M8.00009 1088.13C277.421 1088.13 495.829 896.005 495.829 659.001C495.829 421.997 277.421 229.867 8.00009 229.867C-261.42 229.867 -479.829 421.997 -479.829 659.001C-479.829 896.005 -261.42 1088.13 8.00009 1088.13Z" stroke="white" stroke-miterlimit="10"/>
<path d="M7.99997 1062.7C261.451 1062.7 466.915 881.958 466.915 659.001C466.915 436.045 261.451 255.303 7.99997 255.303C-245.452 255.303 -450.915 436.045 -450.915 659.001C-450.915 881.958 -245.452 1062.7 7.99997 1062.7Z" stroke="white" stroke-miterlimit="10"/>
<path d="M8.00006 1037.27C245.487 1037.27 438.009 867.914 438.009 659.001C438.009 450.088 245.487 280.731 8.00006 280.731C-229.487 280.731 -422.009 450.088 -422.009 659.001C-422.009 867.914 -229.487 1037.27 8.00006 1037.27Z" stroke="white" stroke-miterlimit="10"/>
<path d="M8 1011.84C229.523 1011.84 409.103 853.87 409.103 659.001C409.103 464.132 229.523 306.159 8 306.159C-213.523 306.159 -393.103 464.132 -393.103 659.001C-393.103 853.87 -213.523 1011.84 8 1011.84Z" stroke="white" stroke-miterlimit="10"/>
<path d="M7.99997 986.415C213.558 986.415 380.196 839.827 380.196 659.001C380.196 478.175 213.558 331.587 7.99997 331.587C-197.559 331.587 -364.197 478.175 -364.197 659.001C-364.197 839.827 -197.559 986.415 7.99997 986.415Z" stroke="white" stroke-miterlimit="10"/>
<path d="M8.00003 960.98C197.59 960.98 351.282 825.779 351.282 659.001C351.282 492.223 197.59 357.022 8.00003 357.022C-181.589 357.022 -335.282 492.223 -335.282 659.001C-335.282 825.779 -181.589 960.98 8.00003 960.98Z" stroke="white" stroke-miterlimit="10"/>
<path d="M8.00012 935.552C181.625 935.552 322.376 811.736 322.376 659.001C322.376 506.266 181.625 382.451 8.00012 382.451C-165.625 382.451 -306.376 506.266 -306.376 659.001C-306.376 811.736 -165.625 935.552 8.00012 935.552Z" stroke="white" stroke-miterlimit="10"/>
<path d="M8.00006 910.124C165.661 910.124 293.47 797.692 293.47 659.001C293.47 520.31 165.661 407.879 8.00006 407.879C-149.661 407.879 -277.47 520.31 -277.47 659.001C-277.47 797.692 -149.661 910.124 8.00006 910.124Z" stroke="white" stroke-miterlimit="10"/>
<path d="M8.00006 884.695C149.696 884.695 264.564 783.649 264.564 659.001C264.564 534.354 149.696 433.307 8.00006 433.307C-133.696 433.307 -248.564 534.354 -248.564 659.001C-248.564 783.649 -133.696 884.695 8.00006 884.695Z" stroke="white" stroke-miterlimit="10"/>
<path d="M7.99995 859.26C133.727 859.26 235.65 769.601 235.65 659.001C235.65 548.401 133.727 458.742 7.99995 458.742C-117.727 458.742 -219.65 548.401 -219.65 659.001C-219.65 769.601 -117.727 859.26 7.99995 859.26Z" stroke="white" stroke-miterlimit="10"/>
<path d="M7.99995 833.832C117.763 833.832 206.744 755.557 206.744 659.001C206.744 562.445 117.763 484.17 7.99995 484.17C-101.763 484.17 -190.744 562.445 -190.744 659.001C-190.744 755.557 -101.763 833.832 7.99995 833.832Z" stroke="white" stroke-miterlimit="10"/>
<path d="M7.99988 808.404C101.799 808.404 177.837 741.514 177.837 659.001C177.837 576.488 101.799 509.598 7.99988 509.598C-85.7988 509.598 -161.838 576.488 -161.838 659.001C-161.838 741.514 -85.7988 808.404 7.99988 808.404Z" stroke="white" stroke-miterlimit="10"/>
<path d="M8.00011 782.976C85.8344 782.976 148.932 727.47 148.932 659.001C148.932 590.532 85.8344 535.026 8.00011 535.026C-69.8342 535.026 -132.931 590.532 -132.931 659.001C-132.931 727.47 -69.8342 782.976 8.00011 782.976Z" stroke="white" stroke-miterlimit="10"/>
<path d="M7.99998 757.54C69.8654 757.54 120.017 713.423 120.017 659.001C120.017 604.579 69.8654 560.462 7.99998 560.462C-53.8654 560.462 -104.017 604.579 -104.017 659.001C-104.017 713.423 -53.8654 757.54 7.99998 757.54Z" stroke="white" stroke-miterlimit="10"/>
<path d="M8.00003 732.112C53.901 732.112 91.1111 699.379 91.1111 659.001C91.1111 618.623 53.901 585.89 8.00003 585.89C-37.901 585.89 -75.1111 618.623 -75.1111 659.001C-75.1111 699.379 -37.901 732.112 8.00003 732.112Z" stroke="white" stroke-miterlimit="10"/>
</svg>
